# xmcd
#
# Track frame offsets: 
#        150
#        9229
#        22568
#        32545
#        45490
#        56936
#        66131
#        75881
#        90444
#        101600
#        114559
#        126201
#
# Disc length: 1807 seconds
#
# Revision: 0
# Processed by: cddbd v1.5.2PL0 Copyright (c) Steve Scherf et al.
# Submitted via: ExactAudioCopy v0.95b3
#
DISCID=7f070d0c
DTITLE=Brenda Lee  - Coming On Strong
DYEAR=1900
DGENRE=
TTITLE0=Coming On Strong
TTITLE1=You Don't Have To Say You Love Me
TTITLE2=Summer Wind
TTITLE3=Kiss Away
TTITLE4=Call Me
TTITLE5=What Now My Love
TTITLE6=Uptight
TTITLE7=Crying Time
TTITLE8=Strangers In The Night
TTITLE9=Sweet Dreams
TTITLE10=You Got Your Troubles
TTITLE11=Somewhere
EXTD=
EXTT0=
EXTT1=
EXTT2=
EXTT3=
EXTT4=
EXTT5=
EXTT6=
EXTT7=
EXTT8=
EXTT9=
EXTT10=
EXTT11=
PLAYORDER=
